<svg width="375" height="667" viewBox="0 0 375 667" fill="none" xmlns="http://www.w3.org/2000/svg">
<rect width="375" height="667" fill="black"/>
<path d="M354.211 333.5V291.688M354.211 333.5H312.398M354.211 333.5H387.462M19.7107 333.5V291.688M19.7107 333.5H61.5232M19.7107 333.5H-19M19.7107 166.25H354.211M19.7107 166.25V208.062M19.7107 166.25V124.438M19.7107 166.25H-19M354.211 166.25V208.062M354.211 166.25V124.438M354.211 166.25H387.462M354.211 82.625H19.7107M354.211 82.625V124.438M354.211 82.625V40.8125M354.211 82.625H387.462M19.7107 82.625V124.438M19.7107 82.625V40.8125M19.7107 82.625H-19M19.7107 249.875H354.211M19.7107 249.875V291.688M19.7107 249.875V208.062M19.7107 249.875H-19M354.211 249.875V291.688M354.211 249.875V208.062M354.211 249.875H387.462M354.211 291.688H19.7107M354.211 291.688H387.462M19.7107 291.688H-19M19.7107 208.062H354.211M19.7107 208.062H-19M354.211 208.062H387.462M354.211 124.438H19.7107M354.211 124.438H387.462M19.7107 124.438H-19M19.7107 40.8125V-1H61.5232M19.7107 40.8125H354.211M19.7107 40.8125H-19M354.211 40.8125V-1H312.398M354.211 40.8125H387.462M186.961 -1V333.5M186.961 -1H145.148M186.961 -1H228.773M186.961 333.5H145.148M186.961 333.5H228.773M270.586 333.5V-1M270.586 333.5H228.773M270.586 333.5H312.398M270.586 -1H228.773M270.586 -1H312.398M103.336 -1V333.5M103.336 -1H61.5232M103.336 -1H145.148M103.336 333.5H61.5232M103.336 333.5H145.148M61.5232 333.5V-1M145.148 333.5V-1M228.773 -1V333.5M312.398 333.5V-1" stroke="#2B2B2B"/>
<path d="M354.211 668V626.188M354.211 668H312.398M354.211 668H387.462M19.7107 668V626.188M19.7107 668H61.5232M19.7107 668H-19M19.7107 500.75H354.211M19.7107 500.75V542.563M19.7107 500.75V458.938M19.7107 500.75H-19M354.211 500.75V542.563M354.211 500.75V458.938M354.211 500.75H387.462M354.211 417.125H19.7107M354.211 417.125V458.938M354.211 417.125V375.313M354.211 417.125H387.462M19.7107 417.125V458.938M19.7107 417.125V375.313M19.7107 417.125H-19M19.7107 584.375H354.211M19.7107 584.375V626.188M19.7107 584.375V542.563M19.7107 584.375H-19M354.211 584.375V626.188M354.211 584.375V542.563M354.211 584.375H387.462M354.211 626.188H19.7107M354.211 626.188H387.462M19.7107 626.188H-19M19.7107 542.563H354.211M19.7107 542.563H-19M354.211 542.563H387.462M354.211 458.938H19.7107M354.211 458.938H387.462M19.7107 458.938H-19M19.7107 375.313V333.5H61.5232M19.7107 375.313H354.211M19.7107 375.313H-19M354.211 375.313V333.5H312.398M354.211 375.313H387.462M186.961 333.5V668M186.961 333.5H145.148M186.961 333.5H228.773M186.961 668H145.148M186.961 668H228.773M270.586 668V333.5M270.586 668H228.773M270.586 668H312.398M270.586 333.5H228.773M270.586 333.5H312.398M103.336 333.5V668M103.336 333.5H61.5232M103.336 333.5H145.148M103.336 668H61.5232M103.336 668H145.148M61.5232 668V333.5M145.148 668V333.5M228.773 333.5V668M312.398 668V333.5" stroke="#2B2B2B"/>
<g opacity="0.15">
<rect x="103.514" y="250.128" width="41.3119" height="41.3119" fill="white"/>
<rect x="19.8438" y="250.128" width="41.3119" height="41.3119" fill="white"/>
<rect x="187.184" y="250.128" width="41.3119" height="41.3119" fill="white"/>
<rect x="145.349" y="291.964" width="41.3119" height="41.3119" fill="white"/>
<rect x="61.6787" y="291.964" width="41.3119" height="41.3119" fill="white"/>
<rect x="103.514" y="333.799" width="41.3119" height="41.3119" fill="white"/>
<rect x="19.8438" y="333.799" width="41.3119" height="41.3119" fill="white"/>
<rect x="187.184" y="333.799" width="41.3119" height="41.3119" fill="white"/>
<rect x="145.349" y="375.633" width="41.3119" height="41.3119" fill="white"/>
<rect x="61.6787" y="375.633" width="41.3119" height="41.3119" fill="white"/>
<rect x="103.514" y="417.468" width="41.3119" height="41.3119" fill="white"/>
<rect x="19.8438" y="417.468" width="41.3119" height="41.3119" fill="white"/>
<rect x="187.184" y="417.468" width="41.3119" height="41.3119" fill="white"/>
<rect x="145.349" y="459.303" width="41.3119" height="41.3119" fill="white"/>
<rect x="61.6787" y="459.303" width="41.3119" height="41.3119" fill="white"/>
<rect x="103.514" y="166.459" width="41.3119" height="41.3119" fill="white"/>
<rect x="20" y="166.459" width="41.3119" height="41.3119" fill="white"/>
<rect x="187.184" y="166.459" width="41.3119" height="41.3119" fill="white"/>
<g filter="url(#filter0_d_0_1)">
<rect x="270.853" y="166.459" width="41.3119" height="41.3119" fill="white"/>
</g>
<rect x="145.349" y="208.294" width="41.3119" height="41.3119" fill="white"/>
<rect x="61.6787" y="208.294" width="41.3119" height="41.3119" fill="white"/>
<rect x="229.019" y="208.294" width="41.3119" height="41.3119" fill="white"/>
<rect x="312.688" y="208.294" width="41.3119" height="41.3119" fill="white"/>
<rect x="270.853" y="250.128" width="41.3119" height="41.3119" fill="white"/>
<rect x="229.019" y="291.964" width="41.3119" height="41.3119" fill="white"/>
<rect x="312.688" y="291.964" width="41.3119" height="41.3119" fill="white"/>
<rect x="270.853" y="333.799" width="41.3119" height="41.3119" fill="white"/>
<rect x="229.019" y="375.633" width="41.3119" height="41.3119" fill="white"/>
<rect x="312.688" y="375.633" width="41.3119" height="41.3119" fill="white"/>
<rect x="270.853" y="417.468" width="41.3119" height="41.3119" fill="white"/>
<rect x="229.019" y="459.303" width="41.3119" height="41.3119" fill="white"/>
<rect x="312.688" y="459.303" width="41.3119" height="41.3119" fill="white"/>
</g>
<path opacity="0.5" d="M54.9888 161.063C54.9888 160.404 55.4574 160.06 56.3066 159.928L57.3023 159.774V159.591C57.3023 159.159 57.0022 158.823 56.3872 158.823C55.8015 158.823 55.4794 159.159 55.4794 159.687C55.4794 159.723 55.4867 159.76 55.4867 159.804L55.0181 159.767C54.9669 158.859 55.6185 158.391 56.3725 158.391C57.295 158.391 57.7709 158.874 57.7709 159.628V162H57.3096V161.509C57.0973 161.854 56.7459 162.102 56.2042 162.102C55.3403 162.102 54.9888 161.561 54.9888 161.063ZM55.4574 161.034C55.4574 161.422 55.7795 161.663 56.292 161.663C56.8777 161.663 57.3023 161.202 57.3023 160.492V160.199L56.3799 160.353C55.904 160.426 55.4574 160.602 55.4574 161.034Z" fill="white"/>
<path opacity="0.5" d="M97.1278 162H96.6519V156.875H97.1278V159.108C97.406 158.676 97.8672 158.398 98.4675 158.398C99.4486 158.398 100.137 159.218 100.137 160.258C100.137 161.297 99.4486 162.11 98.4675 162.11C97.8672 162.11 97.406 161.832 97.1278 161.407V162ZM97.1278 160.258C97.1278 161.07 97.6549 161.649 98.3943 161.649C99.1411 161.649 99.6609 161.063 99.6609 160.258C99.6609 159.452 99.1338 158.852 98.3943 158.852C97.6549 158.852 97.1278 159.452 97.1278 160.258Z" fill="white"/>
<path opacity="0.5" d="M138.457 160.258C138.457 159.203 139.13 158.398 140.163 158.398C140.953 158.398 141.517 158.867 141.663 159.569L141.202 159.694C141.122 159.196 140.734 158.852 140.163 158.852C139.43 158.852 138.933 159.452 138.933 160.192C138.933 161.056 139.445 161.656 140.206 161.656C140.814 161.656 141.319 161.246 141.378 160.624L141.839 160.726C141.744 161.539 141.063 162.11 140.214 162.11C139.152 162.11 138.457 161.326 138.457 160.258Z" fill="white"/>
<path opacity="0.5" d="M180.102 160.258C180.102 159.218 180.783 158.398 181.771 158.398C182.372 158.398 182.833 158.676 183.111 159.108V156.875H183.587V162H183.111V161.407C182.833 161.832 182.372 162.11 181.771 162.11C180.783 162.11 180.102 161.297 180.102 160.258ZM180.578 160.258C180.578 161.063 181.098 161.656 181.845 161.656C182.584 161.656 183.111 161.07 183.111 160.258C183.111 159.445 182.584 158.852 181.845 158.852C181.105 158.852 180.578 159.445 180.578 160.258Z" fill="white"/>
<path opacity="0.5" d="M222.111 160.258C222.111 159.203 222.785 158.398 223.81 158.398C224.754 158.398 225.362 159.064 225.362 160.009V160.272H222.573C222.609 161.107 223.122 161.671 223.861 161.671C224.447 161.671 224.915 161.29 224.996 160.697L225.464 160.777C225.362 161.561 224.703 162.11 223.861 162.11C222.807 162.11 222.111 161.326 222.111 160.258ZM222.609 159.848H224.886C224.879 159.269 224.454 158.83 223.81 158.83C223.195 158.83 222.734 159.262 222.609 159.848Z" fill="white"/>
<path opacity="0.5" d="M264.732 158.947H264.029V158.508H264.732V158.105C264.732 157.336 265.251 156.765 266.02 156.765C266.679 156.765 267.17 157.19 267.192 157.856L266.73 157.951C266.738 157.505 266.467 157.212 266.02 157.212C265.537 157.212 265.208 157.563 265.208 158.098V158.508H267.14V158.947H265.208V162H264.732V158.947Z" fill="white"/>
<path opacity="0.5" d="M305.656 162.212L306.132 162.154C306.11 162.835 306.593 163.31 307.267 163.31C308.036 163.31 308.563 162.769 308.563 161.905V161.187C308.306 161.597 307.882 161.861 307.325 161.861C306.352 161.861 305.671 161.107 305.671 160.133C305.671 159.174 306.352 158.398 307.325 158.398C307.882 158.405 308.306 158.676 308.563 159.086V158.508H309.038V161.898C309.038 162.974 308.321 163.75 307.267 163.75C306.359 163.75 305.634 163.164 305.656 162.212ZM306.147 160.133C306.147 160.865 306.637 161.414 307.355 161.414C308.065 161.414 308.563 160.873 308.563 160.133C308.563 159.401 308.065 158.859 307.355 158.859C306.644 158.859 306.147 159.401 306.147 160.133Z" fill="white"/>
<path opacity="0.5" d="M348.319 162H347.843V156.875H348.319V158.998C348.568 158.632 348.97 158.391 349.527 158.391C350.296 158.391 350.742 158.896 350.742 159.708V162H350.266V159.811C350.266 159.152 349.981 158.837 349.395 158.837C348.751 158.837 348.319 159.328 348.319 160.133V162Z" fill="white"/>
<path opacity="0.5" d="M14.1971 200.138H13.2872V199.787C13.9022 199.787 14.1846 199.442 14.1846 198.965H14.605V203.357H14.1971V200.138Z" fill="white"/>
<path opacity="0.5" d="M15.5687 245.192H12.6005V244.879C12.6005 243.197 15.1608 243.46 15.1608 242.08C15.1608 241.477 14.7529 241.095 14.1191 241.095C13.2656 241.095 13.0335 241.672 13.0335 242.155C13.0335 242.274 13.046 242.387 13.0711 242.488L12.613 242.456C12.6005 242.369 12.5879 242.274 12.5879 242.174C12.5879 241.509 12.9519 240.706 14.1191 240.706C14.9913 240.706 15.5687 241.264 15.5687 242.074C15.5687 243.73 13.1464 243.529 13.0397 244.803H15.5687V245.192Z" fill="white"/>
<path opacity="0.5" d="M12.5083 285.653L12.9475 285.597C12.9412 285.641 12.9412 285.684 12.9412 285.722C12.9412 286.299 13.2989 286.732 14.0206 286.732C14.7611 286.732 15.238 286.331 15.238 285.728C15.238 285.12 14.7611 284.818 14.052 284.818H13.6252V284.436L14.0206 284.429C14.6732 284.429 14.9932 284.103 14.9932 283.651C14.9932 283.206 14.6418 282.936 14.0331 282.936C13.4307 282.936 13.0981 283.294 13.1107 283.821L12.6902 283.758C12.6902 283.086 13.2048 282.541 14.0331 282.541C14.9556 282.541 15.4011 283.049 15.4011 283.632C15.4011 284.028 15.2254 284.379 14.874 284.599C15.3949 284.818 15.6521 285.245 15.6521 285.728C15.6521 286.45 15.1062 287.121 14.0206 287.121C12.9726 287.121 12.4769 286.431 12.5083 285.653Z" fill="white"/>
<path opacity="0.5" d="M14.6004 327.839H12.4856V327.475L14.6318 324.47H15.0083V327.457H15.6985V327.839H15.0083V328.862H14.6004V327.839ZM14.6004 325.154L12.9437 327.457H14.6004V325.154Z" fill="white"/>
<path opacity="0.5" d="M12.4795 369.21L12.8811 369.141C12.8497 369.85 13.2765 370.402 14.086 370.402C14.7951 370.402 15.2218 369.957 15.2218 369.267C15.2218 368.608 14.7888 368.181 14.1362 368.181C13.471 368.181 13.2451 368.52 13.107 368.689L12.7431 368.557L12.9752 366.305H15.4163V366.694H13.3392L13.1886 368.137C13.3392 368.018 13.6153 367.798 14.1613 367.798C15.0398 367.798 15.6297 368.394 15.6297 369.267C15.6297 370.183 15.0272 370.791 14.086 370.791C13.0192 370.791 12.4418 370.07 12.4795 369.21Z" fill="white"/>
<path opacity="0.5" d="M12.4611 410.549C12.4611 408.924 13.0824 408.045 14.1429 408.045C14.9963 408.045 15.5987 408.642 15.5987 409.445L15.172 409.508C15.2034 408.893 14.783 408.435 14.1429 408.435C13.415 408.435 12.9443 409.037 12.8816 410.261C13.1451 409.865 13.6032 409.608 14.1492 409.608C14.9838 409.608 15.6489 410.267 15.6489 411.108C15.6489 411.967 14.9524 412.626 14.0864 412.626C13.1639 412.626 12.4611 411.961 12.4611 410.549ZM12.9694 411.108C12.9694 411.704 13.415 412.231 14.0864 412.237C14.739 412.237 15.241 411.742 15.241 411.108C15.241 410.474 14.7641 409.984 14.1052 409.984C13.4714 409.984 12.9694 410.455 12.9694 411.108Z" fill="white"/>
<path opacity="0.5" d="M15.0662 450.364H12.5561V449.975H15.6247V450.364C14.8779 451.085 14.0496 452.673 13.8927 454.367H13.466C13.6229 452.761 14.3634 451.192 15.0662 450.364Z" fill="white"/>
<path opacity="0.5" d="M12.469 494.96C12.469 494.439 12.789 494.018 13.2973 493.811C12.9271 493.623 12.7012 493.29 12.7012 492.883C12.7012 492.192 13.2785 491.715 14.0943 491.715C14.9163 491.715 15.4999 492.192 15.4999 492.883C15.4999 493.297 15.2678 493.623 14.8912 493.811C15.3933 494.025 15.7133 494.439 15.7133 494.96C15.7133 495.763 15.0481 496.296 14.0943 496.296C13.1279 496.296 12.469 495.769 12.469 494.96ZM13.1091 492.883C13.1091 493.334 13.4981 493.636 14.0943 493.636C14.6967 493.636 15.0921 493.334 15.0921 492.883C15.0921 492.412 14.6904 492.092 14.0943 492.092C13.5044 492.092 13.1091 492.406 13.1091 492.883ZM12.8832 494.96C12.8832 495.537 13.3538 495.913 14.0943 495.913C14.8222 495.913 15.2929 495.537 15.2929 494.96C15.2929 494.401 14.8097 494.006 14.0943 494.006C13.3726 494.006 12.8832 494.401 12.8832 494.96Z" fill="white"/>
<defs>
<filter id="filter0_d_0_1" x="268.761" y="166.459" width="45.495" height="45.495" filterUnits="userSpaceOnUse" color-interpolation-filters="sRGB">
<feFlood flood-opacity="0" result="BackgroundImageFix"/>
<feColorMatrix in="SourceAlpha" type="matrix" values="0 0 0 0 0 0 0 0 0 0 0 0 0 0 0 0 0 0 127 0" result="hardAlpha"/>
<feOffset dy="2.09174"/>
<feGaussianBlur stdDeviation="1.04587"/>
<feComposite in2="hardAlpha" operator="out"/>
<feColorMatrix type="matrix" values="0 0 0 0 0 0 0 0 0 0 0 0 0 0 0 0 0 0 0.25 0"/>
<feBlend mode="normal" in2="BackgroundImageFix" result="effect1_dropShadow_0_1"/>
<feBlend mode="normal" in="SourceGraphic" in2="effect1_dropShadow_0_1" result="shape"/>
</filter>
</defs>
</svg>
