<svg width="156" height="145" viewBox="0 0 156 145" fill="none" xmlns="http://www.w3.org/2000/svg">
<path fill-rule="evenodd" clip-rule="evenodd" d="M43 3H18V22V42V61H43V112H18V132H138V112H113V61H138V42V22V3H113V22H98V3H58V22H43V3Z" fill="#AFE8C2"/>
<path d="M18 3V0.5C16.6193 0.5 15.5 1.61929 15.5 3L18 3ZM43 3H45.5C45.5 1.61929 44.3807 0.5 43 0.5V3ZM18 61H15.5C15.5 62.3807 16.6193 63.5 18 63.5V61ZM43 61H45.5C45.5 59.6193 44.3807 58.5 43 58.5V61ZM43 112V114.5C44.3807 114.5 45.5 113.381 45.5 112H43ZM18 112V109.5C16.6193 109.5 15.5 110.619 15.5 112H18ZM18 132H15.5C15.5 133.381 16.6193 134.5 18 134.5V132ZM138 132V134.5C139.381 134.5 140.5 133.381 140.5 132H138ZM138 112H140.5C140.5 110.619 139.381 109.5 138 109.5V112ZM113 112H110.5C110.5 113.381 111.619 114.5 113 114.5V112ZM113 61V58.5C111.619 58.5 110.5 59.6193 110.5 61H113ZM138 61V63.5C139.381 63.5 140.5 62.3807 140.5 61H138ZM138 3H140.5C140.5 1.61929 139.381 0.5 138 0.5V3ZM113 3V0.5C111.619 0.5 110.5 1.61929 110.5 3L113 3ZM113 22V24.5C114.381 24.5 115.5 23.3807 115.5 22H113ZM98 22H95.5C95.5 23.3807 96.6193 24.5 98 24.5V22ZM98 3H100.5C100.5 1.61929 99.3807 0.5 98 0.5V3ZM58 3V0.5C56.6193 0.5 55.5 1.61929 55.5 3L58 3ZM58 22V24.5C59.3807 24.5 60.5 23.3807 60.5 22H58ZM43 22H40.5C40.5 23.3807 41.6193 24.5 43 24.5V22ZM18 5.5H43V0.5H18V5.5ZM20.5 22V3H15.5V22H20.5ZM20.5 42V22H15.5V42H20.5ZM20.5 61V42H15.5V61H20.5ZM43 58.5H18V63.5H43V58.5ZM45.5 112V61H40.5V112H45.5ZM18 114.5H43V109.5H18V114.5ZM20.5 132V112H15.5V132H20.5ZM138 129.5H18V134.5H138V129.5ZM135.5 112V132H140.5V112H135.5ZM113 114.5H138V109.5H113V114.5ZM110.5 61V112H115.5V61H110.5ZM138 58.5H113V63.5H138V58.5ZM135.5 42V61H140.5V42H135.5ZM135.5 22V42H140.5V22H135.5ZM135.5 3V22H140.5V3H135.5ZM113 5.5H138V0.5H113V5.5ZM115.5 22V3H110.5V22H115.5ZM98 24.5H113V19.5H98V24.5ZM95.5 3V22H100.5V3H95.5ZM58 5.5H98V0.5H58V5.5ZM60.5 22V3H55.5V22H60.5ZM43 24.5H58V19.5H43V24.5ZM40.5 3V22H45.5V3H40.5Z" fill="#005E2C"/>
<rect x="21" y="121" width="114" height="8" fill="#3DD771"/>
<rect x="113" y="102" width="40" height="40" fill="#149A53" stroke="#005E2C" stroke-width="5" stroke-linejoin="round"/>
<rect x="3" y="102" width="40" height="40" fill="#149A53" stroke="#005E2C" stroke-width="5" stroke-linejoin="round"/>
<rect x="21" y="6" width="8" height="50" fill="white"/>
<rect x="61" y="6" width="8" height="20" fill="white"/>
<rect x="116" y="6" width="8" height="20" fill="white"/>
<path d="M3 109H43" stroke="#005E2C" stroke-width="3" stroke-linecap="round" stroke-linejoin="round"/>
<path d="M3 119H43" stroke="#005E2C" stroke-width="3" stroke-linecap="round" stroke-linejoin="round"/>
<path d="M3 129H43" stroke="#005E2C" stroke-width="3" stroke-linecap="round" stroke-linejoin="round"/>
<path d="M113 109H153" stroke="#005E2C" stroke-width="3" stroke-linecap="round" stroke-linejoin="round"/>
<path d="M113 119H153" stroke="#005E2C" stroke-width="3" stroke-linecap="round" stroke-linejoin="round"/>
<path d="M113 129H153" stroke="#005E2C" stroke-width="3" stroke-linecap="round" stroke-linejoin="round"/>
</svg>
