<svg width="126" height="135" viewBox="0 0 126 135" fill="none" xmlns="http://www.w3.org/2000/svg">
<path fill-rule="evenodd" clip-rule="evenodd" d="M28 3H3V22V42V61H28V112H3V132H123V112H98V61H123V42V22V3H98V22H83V3H43V22H28V3Z" fill="#AFE8C2"/>
<path d="M3 3V0.5C1.61929 0.5 0.5 1.61929 0.5 3L3 3ZM28 3H30.5C30.5 1.61929 29.3807 0.5 28 0.5V3ZM3 61H0.5C0.5 62.3807 1.61929 63.5 3 63.5L3 61ZM28 61H30.5C30.5 59.6193 29.3807 58.5 28 58.5V61ZM28 112V114.5C29.3807 114.5 30.5 113.381 30.5 112H28ZM3 112V109.5C1.61929 109.5 0.5 110.619 0.5 112H3ZM3 132H0.5C0.5 133.381 1.61929 134.5 3 134.5L3 132ZM123 132V134.5C124.381 134.5 125.5 133.381 125.5 132H123ZM123 112H125.5C125.5 110.619 124.381 109.5 123 109.5V112ZM98 112H95.5C95.5 113.381 96.6193 114.5 98 114.5V112ZM98 61V58.5C96.6193 58.5 95.5 59.6193 95.5 61H98ZM123 61V63.5C124.381 63.5 125.5 62.3807 125.5 61H123ZM123 3H125.5C125.5 1.61929 124.381 0.5 123 0.5V3ZM98 3V0.5C96.6193 0.5 95.5 1.61929 95.5 3L98 3ZM98 22V24.5C99.3807 24.5 100.5 23.3807 100.5 22H98ZM83 22H80.5C80.5 23.3807 81.6193 24.5 83 24.5V22ZM83 3H85.5C85.5 1.61929 84.3807 0.5 83 0.5V3ZM43 3V0.5C41.6193 0.5 40.5 1.61929 40.5 3L43 3ZM43 22V24.5C44.3807 24.5 45.5 23.3807 45.5 22H43ZM28 22H25.5C25.5 23.3807 26.6193 24.5 28 24.5V22ZM3 5.5H28V0.5H3V5.5ZM5.5 22V3H0.5V22H5.5ZM5.5 42V22H0.5V42H5.5ZM5.5 61V42H0.5V61H5.5ZM28 58.5H3V63.5H28V58.5ZM30.5 112V61H25.5V112H30.5ZM3 114.5H28V109.5H3V114.5ZM5.5 132V112H0.5V132H5.5ZM123 129.5H3V134.5H123V129.5ZM120.5 112V132H125.5V112H120.5ZM98 114.5H123V109.5H98V114.5ZM95.5 61V112H100.5V61H95.5ZM123 58.5H98V63.5H123V58.5ZM120.5 42V61H125.5V42H120.5ZM120.5 22V42H125.5V22H120.5ZM120.5 3V22H125.5V3H120.5ZM98 5.5H123V0.5H98V5.5ZM100.5 22V3H95.5V22H100.5ZM83 24.5H98V19.5H83V24.5ZM80.5 3V22H85.5V3H80.5ZM43 5.5H83V0.5H43V5.5ZM45.5 22V3H40.5V22H45.5ZM28 24.5H43V19.5H28V24.5ZM25.5 3V22H30.5V3H25.5Z" fill="#005E2C"/>
<rect x="6" y="121" width="114" height="8" fill="#3DD771"/>
<path d="M53 91C53 85.4772 57.4772 81 63 81C68.5228 81 73 85.4772 73 91V112H53V91Z" fill="#005E2C"/>
<rect x="6" y="6" width="8" height="50" fill="white"/>
<rect x="46" y="6" width="8" height="20" fill="white"/>
<rect x="101" y="6" width="8" height="20" fill="white"/>
</svg>
