<svg width="182" height="145" viewBox="0 0 182 145" fill="none" xmlns="http://www.w3.org/2000/svg">
  <path fill-rule="evenodd" clip-rule="evenodd" d="M58 3H33V22V42V61H58V112H33V132H153V112H128V61H153V42V22V3H128V22H113V3H73V22H58V3Z" fill="#AFE8C2"/>
  <path d="M33 3V0.5C31.6193 0.5 30.5 1.61929 30.5 3L33 3ZM58 3H60.5C60.5 1.61929 59.3807 0.5 58 0.5V3ZM33 61H30.5C30.5 62.3807 31.6193 63.5 33 63.5V61ZM58 61H60.5C60.5 59.6193 59.3807 58.5 58 58.5V61ZM58 112V114.5C59.3807 114.5 60.5 113.381 60.5 112H58ZM33 112V109.5C31.6193 109.5 30.5 110.619 30.5 112H33ZM33 132H30.5C30.5 133.381 31.6193 134.5 33 134.5V132ZM153 132V134.5C154.381 134.5 155.5 133.381 155.5 132H153ZM153 112H155.5C155.5 110.619 154.381 109.5 153 109.5V112ZM128 112H125.5C125.5 113.381 126.619 114.5 128 114.5V112ZM128 61V58.5C126.619 58.5 125.5 59.6193 125.5 61H128ZM153 61V63.5C154.381 63.5 155.5 62.3807 155.5 61H153ZM153 3H155.5C155.5 1.61929 154.381 0.5 153 0.5V3ZM128 3V0.5C126.619 0.5 125.5 1.61929 125.5 3L128 3ZM128 22V24.5C129.381 24.5 130.5 23.3807 130.5 22H128ZM113 22H110.5C110.5 23.3807 111.619 24.5 113 24.5V22ZM113 3H115.5C115.5 1.61929 114.381 0.5 113 0.5V3ZM73 3V0.5C71.6193 0.5 70.5 1.61929 70.5 3L73 3ZM73 22V24.5C74.3807 24.5 75.5 23.3807 75.5 22H73ZM58 22H55.5C55.5 23.3807 56.6193 24.5 58 24.5V22ZM33 5.5H58V0.5H33V5.5ZM35.5 22V3H30.5V22H35.5ZM35.5 42V22H30.5V42H35.5ZM35.5 61V42H30.5V61H35.5ZM58 58.5H33V63.5H58V58.5ZM60.5 112V61H55.5V112H60.5ZM33 114.5H58V109.5H33V114.5ZM35.5 132V112H30.5V132H35.5ZM153 129.5H33V134.5H153V129.5ZM150.5 112V132H155.5V112H150.5ZM128 114.5H153V109.5H128V114.5ZM125.5 61V112H130.5V61H125.5ZM153 58.5H128V63.5H153V58.5ZM150.5 42V61H155.5V42H150.5ZM150.5 22V42H155.5V22H150.5ZM150.5 3V22H155.5V3H150.5ZM128 5.5H153V0.5H128V5.5ZM130.5 22V3H125.5V22H130.5ZM113 24.5H128V19.5H113V24.5ZM110.5 3V22H115.5V3H110.5ZM73 5.5H113V0.5H73V5.5ZM75.5 22V3H70.5V22H75.5ZM58 24.5H73V19.5H58V24.5ZM55.5 3V22H60.5V3H55.5Z" fill="#005E2C"/>
  <rect x="36" y="121" width="114" height="8" fill="#3DD771"/>
  <path d="M100 91C100 85.4772 104.477 81 110 81C115.523 81 120 85.4772 120 91V112H100V91Z" fill="#005E2C"/>
  <rect x="63" y="102" width="116" height="40" rx="20" fill="#149A53" stroke="#005E2C" stroke-width="5" stroke-linejoin="round"/>
  <rect x="42" y="102" width="116" height="40" rx="20" fill="#149A53" stroke="#005E2C" stroke-width="5" stroke-linejoin="round"/>
  <path d="M155 109L171 109" stroke="#005E2C" stroke-width="3" stroke-linecap="round" stroke-linejoin="round"/>
  <path d="M159 119L177 119" stroke="#005E2C" stroke-width="3" stroke-linecap="round" stroke-linejoin="round"/>
  <path d="M156 129L175 129" stroke="#005E2C" stroke-width="3" stroke-linecap="round" stroke-linejoin="round"/>
  <rect x="24" y="102" width="116" height="40" rx="20" fill="#149A53" stroke="#005E2C" stroke-width="5" stroke-linejoin="round"/>
  <rect x="3" y="102" width="116" height="40" rx="20" fill="#3DD771" stroke="#005E2C" stroke-width="5" stroke-linejoin="round"/>
  <path d="M116 109L132 109" stroke="#005E2C" stroke-width="3" stroke-linecap="round" stroke-linejoin="round"/>
  <path d="M120 119L138 119" stroke="#005E2C" stroke-width="3" stroke-linecap="round" stroke-linejoin="round"/>
  <path d="M117 129L136 129" stroke="#005E2C" stroke-width="3" stroke-linecap="round" stroke-linejoin="round"/>
  <ellipse cx="98" cy="122" rx="9" ry="12" fill="#005E2C"/>
</svg>
